<svg width="512" height="512" viewBox="0 0 512 512" fill="none" xmlns="http://www.w3.org/2000/svg">
<path d="M382.172 241.406V306.24H361.286V231.253L382.172 241.406Z" fill="#F37368"/>
<path d="M86.5752 294.201L102.24 307.835L168.234 273.46L161.417 257.07L86.5752 294.201ZM361.286 252.429L414.371 224.871L405.379 209.351L361.286 231.253V252.429Z" fill="#F7A199"/>
<path d="M211.892 236.329V306.24H191.876V206.595L211.892 236.329ZM86.5752 294.201L102.24 307.835L132.409 232.413L122.691 206.595L86.5752 294.201Z" fill="#F37368"/>
<path d="M122.69 206.595H143.286L181.433 306.24H160.256L122.69 206.595ZM214.937 206.595L258.885 274.62V306.24L191.876 206.595H214.937ZM296.596 206.595H317.337V306.24H296.596V206.595ZM361.285 224.871H329.376V206.595H403.783L414.371 224.871H382.171H361.285Z" fill="#F04939"/>
<path d="M475.724 268.384V306.24H455.128V268.384" fill="#F7A199"/>
<path d="M489.938 206.595L455.128 268.384H475.724L511.84 206.595H489.938Z" fill="#F04939"/>
<path d="M455.128 268.384L419.158 206.595H441.784L466.006 248.948L455.128 268.384Z" fill="#F37368"/>
<path d="M9.26752 218.199C9.26752 231.978 17.825 240.245 34.94 244.597L53.0704 248.803C69.3151 252.574 79.178 261.857 79.178 276.941C79.323 283.468 77.1474 289.85 73.2313 295.071C73.2313 279.987 65.399 271.865 46.6885 266.933L28.8483 262.872C14.489 259.681 3.46582 251.994 3.46582 235.604C3.46582 229.367 5.49642 223.13 9.26752 218.199Z" fill="#F04939"/>
<path d="M258.886 269.544V206.595H278.902V306.24H258.886V269.544Z" fill="#F37368"/>
<path d="M62.0629 273.17C69.7501 278.101 73.2312 285.063 73.2312 295.071C66.7043 303.339 55.536 307.835 42.3371 307.835C20.1456 307.835 4.33598 296.812 1 277.811H22.3212C25.0771 286.514 32.3292 290.575 42.1921 290.575C53.9405 290.72 61.9178 284.338 62.0629 273.17ZM9.26742 218.054C15.5042 209.931 26.2374 205 39.2912 205C62.0629 205 75.1167 217.039 78.4527 233.863H57.8567C55.536 227.192 49.8793 221.97 39.5813 221.97C28.413 222.115 20.8708 228.497 20.4357 238.65C12.9617 234.528 8.97734 226.466 9.26742 218.054Z" fill="#F37368"/>
</svg>
