<svg width="111" height="75" viewBox="0 0 111 75" fill="none" xmlns="http://www.w3.org/2000/svg">
<path d="M10.1048 13.1048C14.9297 8.2799 21.077 4.99409 27.7694 3.6629C34.4617 2.33171 41.3985 3.01493 47.7026 5.62615C54.0066 8.23738 59.3948 12.6593 63.1857 18.3328C66.9766 24.0063 69 30.6765 69 37.5C69 44.3235 66.9766 50.9937 63.1857 56.6672C59.3948 62.3407 54.0066 66.7626 47.7026 69.3738C41.3985 71.9851 34.4617 72.6683 27.7694 71.3371C21.077 70.0059 14.9297 66.7201 10.1048 61.8952" stroke="#7000FF" stroke-width="5" stroke-linecap="round" stroke-linejoin="round"/>
<path d="M91.75 67.3779C95.6736 65.1126 99.1126 62.0966 101.871 58.5023C104.629 54.9079 106.652 50.8055 107.824 46.4293" stroke="#7000FF" stroke-width="5" stroke-linecap="round" stroke-linejoin="round" stroke-dasharray="100 211"/>
<path d="M90.8853 7.13928C86.7819 4.92475 82.2722 3.56499 77.6286 3.14215C72.985 2.71931 68.3039 3.24216 63.868 4.67911C59.4321 6.11606 55.3336 8.4373 51.8199 11.5026C48.3063 14.5679 45.4505 18.3136 43.425 22.5135C41.3995 26.7134 40.2464 31.2804 40.0354 35.9384C39.8243 40.5964 40.5597 45.2489 42.197 49.6148C43.8344 53.9806 46.3397 57.9693 49.5618 61.3398C52.7838 64.7103 56.6557 67.3927 60.9434 69.2249" stroke="white" stroke-width="5" stroke-linecap="round" stroke-linejoin="round"/>
<path d="M59 19.5C60.3807 19.5 61.5 18.3807 61.5 17C61.5 15.6193 60.3807 14.5 59 14.5V19.5ZM46 19.5H59V14.5H46V19.5Z" fill="white"/>
</svg>
