<svg width="281" height="14" viewBox="0 0 281 14" fill="none" xmlns="http://www.w3.org/2000/svg">
<path d="M36.889 9.349C36.889 10.298 36.317 11.13 34.445 11.13C32.417 11.13 31.598 10.155 31.598 8.621H32.456C32.456 9.869 33.158 10.402 34.445 10.402C35.537 10.402 36.031 10.142 36.031 9.414C36.031 8.465 35.056 8.309 34.003 7.984C32.781 7.607 31.897 7.217 31.897 6.099C31.897 5.111 32.729 4.435 34.146 4.435C36.109 4.435 36.668 5.54 36.668 6.554H35.81C35.81 5.605 35.238 5.163 34.146 5.163C33.379 5.163 32.755 5.397 32.755 6.047C32.755 6.723 33.158 6.918 34.198 7.256C35.472 7.672 36.889 7.958 36.889 9.349ZM38.0884 7.776C38.0884 5.982 39.2324 4.435 41.3254 4.435C42.4694 4.435 44.0554 5.085 44.2374 6.957H43.3664C43.1584 5.592 42.2874 5.163 41.3254 5.163C39.6874 5.163 38.9464 6.385 38.9464 7.776C38.9464 9.18 39.6874 10.402 41.3254 10.402C42.2874 10.402 43.1584 9.973 43.3664 8.608H44.2374C44.0554 10.48 42.4694 11.13 41.3254 11.13C39.2324 11.13 38.0884 9.583 38.0884 7.776ZM45.8259 11V5.28C45.8259 4.695 46.0859 4.409 46.6709 4.435L50.1159 4.565V5.293L46.6839 5.163V11H45.8259ZM50.6567 7.776C50.6567 5.982 51.9437 4.435 54.0107 4.435C56.0647 4.435 57.3517 5.982 57.3517 7.776C57.3517 9.583 56.0647 11.13 54.0107 11.13C51.9437 11.13 50.6567 9.583 50.6567 7.776ZM51.5147 7.776C51.5147 9.18 52.3727 10.402 54.0107 10.402C55.6357 10.402 56.4937 9.18 56.4937 7.776C56.4937 6.385 55.6357 5.163 54.0107 5.163C52.3727 5.163 51.5147 6.385 51.5147 7.776ZM58.0296 11V10.272H59.8366V2.043L58.5496 2.173V1.445L59.8496 1.315C60.4346 1.25 60.6946 1.575 60.6946 2.16V10.272H62.5016V11H58.0296ZM63.5648 11V10.272H65.3718V2.043L64.0848 2.173V1.445L65.3848 1.315C65.9698 1.25 66.2298 1.575 66.2298 2.16V10.272H68.0368V11H63.5648Z" fill="white"/>
<rect width="28" height="14" rx="7" fill="#D9D9D9"/>
<rect x="17" y="6" width="7" height="2" rx="1" fill="black"/>
<path d="M280.354 7.35357C280.549 7.15831 280.549 6.84173 280.354 6.64646L277.172 3.46448C276.976 3.26922 276.66 3.26922 276.464 3.46448C276.269 3.65975 276.269 3.97633 276.464 4.17159L279.293 7.00002L276.464 9.82844C276.269 10.0237 276.269 10.3403 276.464 10.5356C276.66 10.7308 276.976 10.7308 277.172 10.5356L280.354 7.35357ZM72 7.5L280 7.50002L280 6.50002L72 6.5L72 7.5Z" fill="#5A06C5"/>
</svg>
